# xmcd
#
# Track frame offsets:
#	150
#	19725
#	31360
#	50180
#	68645
#	80150
#	100425
#	116435
#	127750
#	147975
#	161475
#	174435
#	193360
#	215635
#	226435
#	239450
#	252870
#	271795
#	287670
#	297690
#
# Disc length: 4245 seconds
#
# Revision: 3
# Processed by: cddbd v1.5.2PL0 Copyright (c) Steve Scherf et al.
# Submitted via: audiograbber 1.83.01
#
DISCID=33109314
DTITLE=Various Artist - MM Country Club Pack 2 Disc 5
DYEAR=1900
DGENRE=Karaoke
TTITLE0=LeAnn Rimes - How Do I live
TTITLE1=Garth Brooks - Long Neck Bottle
TTITLE2=Shania Twain - Home Ain't Where The Heart Is
TTITLE3=Travis Tritt - Nothing Short Of Dying
TTITLE4=Jerry Lee Lewis - Drinkin' Wine
TTITLE5=Postcard - I'm Checking Out Of This Hearthbreak Hotel
TTITLE6=John Michael Montgomery - Angel In My Eyes
TTITLE7=Patsy Cline - I've Loved And Lost Again
TTITLE8=Patty Loveless - To Have You Back Again
TTITLE9=Travis Tritt - The Whiskey Ain't Workin'
TTITLE10=Rondstadt, Linda - Love Is A Rose
TTITLE11=Toby Keith - We Were In Love
TTITLE12=Tim McGraw - Everywhere
TTITLE13=Elvis Presley - Don't Ask Me Why
TTITLE14=Garth Brooks - She's Gonna Make It
TTITLE15=The Judds - Girls Night Out
TTITLE16=Sammy Kershaw - Love Of My Life
TTITLE17=Daryl Singletary - The Note
TTITLE18=Elvis Presley - I'm So Lonesome I Could Cry
TTITLE19=Shania Twain - Raining On Our Love
EXTD=
EXTT0=
EXTT1=
EXTT2=
EXTT3=
EXTT4=
EXTT5=
EXTT6=
EXTT7=
EXTT8=
EXTT9=
EXTT10=
EXTT11=
EXTT12=
EXTT13=
EXTT14=
EXTT15=
EXTT16=
EXTT17=
EXTT18=
EXTT19=
PLAYORDER=
